<?xml version="1.0" standalone="no"?>
<!DOCTYPE svg PUBLIC "-//W3C//DTD SVG 20010904//EN"
 "http://www.w3.org/TR/2001/REC-SVG-20010904/DTD/svg10.dtd">
<svg version="1.0" xmlns="http://www.w3.org/2000/svg"
 width="300.000000pt" height="300.000000pt" viewBox="0 0 300.000000 300.000000"
 preserveAspectRatio="xMidYMid meet">
<metadata>
Created by potrace 1.11, written by Peter Selinger 2001-2013
</metadata>
<g transform="translate(0.000000,300.000000) scale(0.100000,-0.100000)"
fill="#000000" stroke="none">
<path d="M1233 2734 c-139 -140 -253 -257 -253 -261 0 -4 72 -80 161 -169
l160 -161 -59 -61 c-32 -34 -62 -62 -66 -62 -4 0 -80 72 -168 160 -87 88 -161
160 -164 160 -2 0 -118 -115 -258 -256 l-254 -255 165 -166 165 -165 -159
-160 c-87 -87 -160 -161 -162 -163 -4 -4 506 -515 514 -515 2 0 77 72 165 160
l160 160 65 -65 c36 -36 65 -69 65 -73 0 -4 -72 -79 -159 -167 l-159 -160 258
-257 258 -257 261 261 262 262 -161 161 -161 161 62 63 62 63 161 -161 162
-162 257 258 258 257 -162 162 -161 161 162 162 c89 89 160 166 158 171 -2 5
-117 125 -257 266 l-254 256 -161 -161 c-89 -89 -166 -161 -171 -161 -6 0 -37
27 -70 60 l-59 61 134 136 c74 75 147 147 163 160 15 14 27 28 27 32 0 13
-511 521 -523 520 -7 0 -126 -115 -264 -255z m467 -69 c105 -104 190 -192 190
-195 0 -3 -59 -63 -130 -134 l-129 -130 -32 32 -33 32 97 98 c53 53 97 101 97
105 0 8 -237 247 -246 247 -9 0 -254 -248 -254 -257 0 -4 114 -121 252 -260
l253 -253 -35 -35 -35 -35 -294 295 -293 294 193 196 c107 107 197 194 202
192 4 -1 93 -87 197 -192z m-70 -189 c0 -4 -30 -36 -67 -73 l-66 -66 -60 62
-60 62 68 69 69 69 58 -58 c32 -33 58 -62 58 -65z m-647 -396 l130 -130 -33
-31 -32 -31 -93 92 -93 92 -126 -126 c-69 -70 -126 -130 -126 -134 0 -4 114
-120 252 -259 l253 -253 -35 -35 -35 -34 -293 293 -294 294 194 195 c106 108
195 196 197 196 2 1 63 -57 134 -129z m1429 -391 l-132 -133 -30 29 c-17 16
-30 32 -30 35 0 4 43 50 96 104 95 96 96 97 78 118 -26 29 -236 238 -239 238
-2 0 -120 -117 -264 -261 l-261 -261 -30 29 -31 30 293 295 293 294 194 -192
195 -193 -132 -132z m-1007 351 l29 -31 -221 -221 -222 -222 -33 32 -32 33
219 219 c121 121 222 220 226 220 3 0 18 -14 34 -30z m-441 -199 l20 -22 -64
-61 -63 -61 -60 62 -60 62 62 63 62 63 42 -42 c23 -23 51 -52 61 -64z m1261
44 l66 -65 -64 -65 c-35 -36 -68 -65 -73 -65 -5 0 -37 29 -72 64 l-63 64 63
66 c35 36 66 66 70 66 4 0 37 -29 73 -65z m-657 -8 l62 -63 -64 -63 -64 -64
-61 61 c-34 33 -61 63 -61 68 0 9 111 124 120 124 3 0 34 -28 68 -63z m786
-906 l-194 -196 -130 131 -131 130 25 27 c14 15 30 27 36 27 6 0 52 -41 101
-91 l91 -91 40 39 c22 21 80 78 129 127 l90 90 -262 262 -262 262 34 36 34 35
296 -296 297 -295 -194 -197z m-818 554 c123 -124 224 -229 224 -233 0 -5 -13
-20 -28 -35 l-28 -27 -229 230 -229 229 29 31 c16 16 31 30 33 30 3 0 105
-101 228 -225z m-286 33 l61 -61 -58 -59 c-31 -32 -62 -58 -68 -58 -5 0 -37
27 -69 60 l-60 60 59 60 c33 33 63 60 67 60 4 0 34 -28 68 -62z m642 -5 l67
-68 -64 -64 -64 -64 -66 64 c-35 35 -65 68 -65 72 0 9 111 125 120 126 3 1 36
-29 72 -66z m-1130 -154 l31 -31 -99 -99 -99 -99 133 -133 132 -132 262 263
c203 204 264 260 270 248 5 -8 18 -22 30 -30 20 -14 10 -25 -276 -312 -162
-164 -299 -294 -303 -291 -5 4 -92 92 -195 195 l-188 187 132 132 c73 73 134
133 136 133 2 0 17 -14 34 -31z m1293 -9 l28 -30 -221 -222 -221 -223 -32 33
c-20 20 -29 37 -23 42 109 117 422 428 430 429 5 0 23 -12 39 -29z m-1135
-150 c33 -33 60 -64 60 -68 0 -4 -28 -36 -63 -70 l-63 -62 -64 65 -64 65 64
65 c35 36 66 65 67 65 2 0 30 -27 63 -60z m681 -35 l38 -40 -61 -62 -62 -62
-69 68 -70 69 62 62 62 62 31 -28 c17 -16 48 -47 69 -69z m618 21 l63 -64 -61
-61 c-33 -33 -63 -61 -67 -61 -7 0 -124 115 -124 122 0 5 120 128 124 128 1 0
30 -29 65 -64z m-612 -419 l292 -293 -198 -198 -198 -198 -197 198 -197 198
135 135 134 134 31 -34 31 -34 -97 -97 -98 -98 130 -130 130 -130 128 127 128
127 -262 262 -262 262 32 31 c17 17 35 31 39 31 4 0 139 -132 299 -293z m-28
-228 l61 -62 -65 -65 -66 -66 -64 65 -65 64 58 61 c31 34 62 62 68 63 6 1 39
-27 73 -60z"/>
</g>
</svg>
